<svg xmlns="http://www.w3.org/2000/svg" xmlns:xlink="http://www.w3.org/1999/xlink" width="1000" zoomAndPan="magnify" viewBox="0 0 750 749.999995" height="1000" preserveAspectRatio="xMidYMid meet" version="1.0"><defs><clipPath id="92587cdde0"><path d="M 375 0 C 167.894531 0 0 167.894531 0 375 C 0 582.105469 167.894531 750 375 750 C 582.105469 750 750 582.105469 750 375 C 750 167.894531 582.105469 0 375 0 Z M 375 0 " clip-rule="nonzero"/></clipPath><clipPath id="f5c2fa8360"><path d="M 103.324219 128.40625 L 646.324219 128.40625 L 646.324219 351 L 103.324219 351 Z M 103.324219 128.40625 " clip-rule="nonzero"/></clipPath><clipPath id="1e16f484c3"><path d="M 306 430.3125 L 444 430.3125 L 444 616 L 306 616 Z M 306 430.3125 " clip-rule="nonzero"/></clipPath></defs><rect x="-75" width="900" fill="#ffffff" y="-74.999999" height="899.999994" fill-opacity="1"/><rect x="-75" width="900" fill="#ffffff" y="-74.999999" height="899.999994" fill-opacity="1"/><g clip-path="url(#92587cdde0)"><rect x="-75" width="900" fill="#006400" y="-74.999999" height="899.999994" fill-opacity="1"/></g><path fill="#ffffff" d="M 315.019531 293.53125 C 320.015625 289.171875 329.871094 292.292969 337.027344 300.507812 C 344.1875 308.714844 345.9375 318.90625 340.941406 323.261719 C 335.945312 327.617188 326.089844 324.492188 318.933594 316.289062 C 311.773438 308.074219 310.023438 297.886719 315.019531 293.53125 Z M 344.988281 250.574219 C 352.890625 248.152344 362.519531 256.714844 366.492188 269.695312 C 370.472656 282.671875 367.289062 295.160156 359.386719 297.582031 C 351.484375 299.996094 341.859375 291.4375 337.878906 278.460938 C 333.90625 265.476562 337.085938 252.992188 344.988281 250.574219 Z M 398.585938 328.398438 C 398.585938 328.402344 398.585938 328.410156 398.585938 328.414062 C 398.585938 329.277344 399.074219 330.054688 399.847656 330.433594 C 406.625 333.726562 411.300781 340.679688 411.300781 348.722656 C 411.300781 359.957031 402.207031 369.050781 390.976562 369.050781 C 385.320312 369.050781 380.207031 366.746094 376.523438 363.019531 C 375.667969 362.15625 374.265625 362.15625 373.414062 363.019531 C 369.726562 366.746094 364.609375 369.050781 358.957031 369.050781 C 347.730469 369.050781 338.628906 359.957031 338.628906 348.722656 C 338.628906 340.679688 343.300781 333.726562 350.082031 330.433594 C 350.859375 330.054688 351.347656 329.277344 351.347656 328.410156 C 351.347656 328.410156 351.347656 328.402344 351.347656 328.398438 C 351.347656 315.355469 361.921875 304.773438 374.964844 304.773438 C 388.007812 304.773438 398.585938 315.355469 398.585938 328.398438 Z M 383.4375 269.695312 C 387.410156 256.714844 397.039062 248.152344 404.945312 250.574219 C 412.84375 252.992188 416.027344 265.476562 412.046875 278.460938 C 408.070312 291.4375 398.441406 299.996094 390.546875 297.582031 C 382.644531 295.160156 379.460938 282.671875 383.4375 269.695312 Z M 434.910156 293.53125 C 439.910156 297.886719 438.15625 308.074219 431 316.289062 C 423.839844 324.492188 413.980469 327.617188 408.988281 323.261719 C 403.992188 318.90625 405.742188 308.714844 412.902344 300.507812 C 420.0625 292.292969 429.914062 289.171875 434.910156 293.53125 Z M 375.542969 404.019531 C 428.839844 404.019531 472.046875 447.226562 472.046875 500.519531 L 472.046875 616.914062 L 548.550781 616.335938 L 578.128906 331.699219 L 550.761719 312.613281 L 374.964844 190.007812 L 216.050781 300.839844 L 169.382812 333.386719 L 204.21875 618.945312 L 279.039062 618.382812 L 279.039062 500.519531 C 279.039062 447.226562 322.246094 404.019531 375.542969 404.019531 " fill-opacity="1" fill-rule="nonzero"/><g clip-path="url(#f5c2fa8360)"><path fill="#ffffff" d="M 646.589844 317.8125 L 374.964844 128.382812 L 103.34375 317.8125 L 130.054688 350.246094 L 374.964844 179.4375 L 619.878906 350.246094 L 646.589844 317.8125 " fill-opacity="1" fill-rule="nonzero"/></g><g clip-path="url(#1e16f484c3)"><path fill="#ffffff" d="M 368.863281 430.777344 C 361.65625 431.023438 354.507812 432.722656 347.121094 435.941406 C 339.328125 439.339844 327.253906 446.636719 322.089844 451.066406 C 320.507812 452.421875 317.132812 455.605469 316.660156 456.191406 C 316.4375 456.464844 316.066406 456.871094 315.835938 457.09375 C 315.257812 457.660156 315.121094 458.675781 315.527344 459.449219 C 315.585938 459.558594 315.804688 460.222656 316.019531 460.921875 C 317.730469 466.542969 323.546875 476.347656 327.726562 480.660156 C 330.207031 483.214844 332.988281 485.535156 334.484375 486.289062 C 337.679688 487.902344 341.433594 487.121094 344.082031 484.289062 L 344.863281 483.453125 L 344.304688 484.484375 C 336.519531 498.914062 331.570312 520.351562 331.257812 540.96875 L 331.1875 545.785156 L 330.316406 546.410156 C 320.902344 553.167969 314.003906 573.117188 315.167969 590.214844 C 315.304688 592.261719 315.335938 592.175781 314.425781 592.296875 C 310.71875 592.789062 306.996094 596.066406 306.261719 599.480469 C 304.988281 605.425781 310.332031 609.972656 317.246094 608.816406 C 318.089844 608.675781 321.535156 608.335938 324.90625 608.0625 C 328.28125 607.789062 333.332031 607.371094 336.132812 607.140625 C 338.9375 606.90625 341.390625 606.714844 341.589844 606.714844 L 341.949219 606.714844 L 341.957031 608.644531 C 341.992188 621.570312 362.277344 615.308594 371.195312 599.621094 C 371.832031 598.503906 371.855469 598.480469 372.222656 598.550781 C 373.808594 598.871094 375.933594 598.914062 377.734375 598.667969 L 378.265625 598.59375 L 378.855469 599.621094 C 379.894531 601.429688 380.867188 602.769531 382.097656 604.078125 C 382.414062 604.414062 382.898438 605.027344 383.175781 605.4375 C 383.453125 605.851562 384.25 606.726562 384.945312 607.382812 C 395.90625 617.742188 408.003906 618.339844 408.03125 608.523438 L 408.035156 606.589844 L 408.394531 606.589844 C 408.59375 606.589844 411.050781 606.78125 413.851562 607.015625 C 416.652344 607.25 421.707031 607.664062 425.078125 607.9375 C 428.449219 608.214844 431.898438 608.550781 432.742188 608.691406 C 439.652344 609.847656 444.996094 605.304688 443.722656 599.359375 C 442.992188 595.941406 439.265625 592.664062 435.5625 592.171875 C 434.648438 592.050781 434.679688 592.140625 434.820312 590.089844 C 435.980469 572.996094 429.082031 553.042969 419.667969 546.289062 L 418.800781 545.664062 L 418.726562 540.847656 C 418.417969 520.226562 413.464844 498.792969 405.679688 484.363281 L 405.125 483.332031 L 405.90625 484.164062 C 408.550781 486.996094 412.304688 487.78125 415.503906 486.167969 C 417.59375 485.113281 422.253906 480.890625 424.429688 478.085938 C 426.355469 475.601562 431.023438 468.097656 431.023438 467.484375 C 431.023438 467.433594 431.183594 467.140625 431.382812 466.832031 C 431.960938 465.921875 433.34375 462.714844 433.875 461.058594 C 434.140625 460.214844 434.40625 459.433594 434.460938 459.324219 C 434.863281 458.53125 434.726562 457.535156 434.148438 456.972656 C 433.917969 456.75 433.546875 456.339844 433.328125 456.066406 C 432.851562 455.484375 429.480469 452.296875 427.898438 450.941406 C 420.855469 444.902344 405.167969 436.09375 396.941406 433.554688 C 388.09375 430.828125 382.785156 430.304688 368.863281 430.777344 M 377.078125 434.089844 C 383.71875 434.097656 387.917969 434.566406 391.878906 435.75 C 392.472656 435.925781 393.285156 436.152344 393.691406 436.253906 C 400.269531 437.917969 410.097656 442.859375 420.234375 449.601562 C 423.910156 452.046875 425.746094 453.546875 429.78125 457.414062 L 431.054688 458.632812 L 430.785156 459.570312 C 429.238281 464.933594 423.585938 474.289062 419.328125 478.535156 C 415.195312 482.65625 413.710938 483.605469 411.601562 483.46875 C 407.253906 483.191406 405.738281 478.160156 404.914062 461.304688 C 404.421875 451.269531 403.273438 446.339844 400.199219 441.074219 C 398.554688 438.257812 397.175781 437.5 396.242188 438.894531 C 395.691406 439.714844 395.804688 440.390625 396.765625 442.058594 C 399.839844 447.394531 400.972656 451.8125 401.351562 459.953125 C 401.421875 461.472656 401.535156 463.429688 401.601562 464.304688 C 401.828125 467.214844 402.335938 472.996094 402.46875 474.15625 L 402.597656 475.300781 L 402.1875 475.714844 C 401.960938 475.941406 401.699219 476.335938 401.605469 476.589844 C 400.578125 479.449219 398.910156 481.617188 398.902344 480.109375 C 398.898438 478.808594 398.15625 476.121094 397.53125 475.132812 C 396.085938 472.847656 393.503906 474.472656 394.601562 476.976562 C 397.195312 482.910156 394.234375 490.597656 388.074219 493.917969 C 386.070312 495 384.710938 495.042969 380.558594 494.160156 C 378.972656 493.824219 377.546875 493.546875 377.394531 493.546875 C 377.128906 493.546875 377.109375 493.492188 377.035156 492.351562 C 376.925781 490.679688 376.933594 490.238281 377.085938 490.238281 C 377.386719 490.238281 379.136719 489.335938 380.253906 488.601562 C 389.632812 482.457031 386.558594 471.429688 375.605469 471.921875 C 371.351562 472.113281 370.117188 472.328125 368.433594 473.167969 C 363.058594 475.847656 362.691406 482.429688 367.648438 487.105469 C 368.960938 488.34375 372.214844 490.359375 372.902344 490.359375 C 373.050781 490.359375 373.0625 490.804688 372.949219 492.476562 C 372.875 493.613281 372.859375 493.671875 372.59375 493.671875 C 372.4375 493.671875 371.015625 493.945312 369.425781 494.285156 C 365.273438 495.167969 363.917969 495.121094 361.910156 494.039062 C 355.75 490.71875 352.789062 483.035156 355.386719 477.097656 C 356.480469 474.59375 353.898438 472.96875 352.453125 475.257812 C 351.832031 476.246094 351.089844 478.933594 351.082031 480.230469 C 351.074219 481.738281 349.410156 479.570312 348.378906 476.714844 C 348.285156 476.457031 348.027344 476.0625 347.800781 475.835938 L 347.386719 475.425781 L 347.519531 474.28125 C 347.648438 473.117188 348.160156 467.335938 348.382812 464.429688 C 348.453125 463.554688 348.566406 461.59375 348.636719 460.078125 C 349.015625 451.933594 350.148438 447.515625 353.21875 442.183594 C 354.179688 440.511719 354.292969 439.835938 353.742188 439.015625 C 352.808594 437.621094 351.429688 438.382812 349.789062 441.195312 C 346.714844 446.460938 345.5625 451.390625 345.074219 461.425781 C 344.25 478.28125 342.730469 483.3125 338.382812 483.589844 C 336.273438 483.726562 334.789062 482.777344 330.660156 478.660156 C 326.398438 474.410156 320.746094 465.054688 319.203125 459.691406 L 318.929688 458.753906 L 320.203125 457.535156 C 324.238281 453.667969 326.074219 452.167969 329.75 449.722656 C 338.085938 444.179688 346.496094 439.6875 352.617188 437.511719 C 353.425781 437.226562 354.628906 436.777344 355.289062 436.523438 C 355.945312 436.265625 356.773438 436.019531 357.125 435.980469 C 357.480469 435.9375 358.429688 435.746094 359.238281 435.550781 C 362.132812 434.847656 365.246094 434.429688 369.222656 434.203125 C 370.46875 434.132812 371.515625 434.046875 371.554688 434.007812 C 371.589844 433.96875 371.925781 433.972656 372.296875 434.011719 C 372.667969 434.054688 374.820312 434.089844 377.078125 434.089844 M 386.496094 451.925781 C 384.335938 452.332031 382.015625 453.539062 381.566406 454.484375 C 380.734375 456.238281 382.671875 457.6875 384.296875 456.53125 C 387.121094 454.519531 391.628906 454.734375 394.300781 457.007812 C 395.699219 458.195312 397.179688 458.042969 397.546875 456.664062 C 398.304688 453.816406 391.632812 450.953125 386.496094 451.925781 M 358.605469 452.035156 C 354.199219 452.875 351.027344 455.949219 352.921875 457.542969 C 353.707031 458.203125 354.570312 458.074219 355.683594 457.128906 C 358.359375 454.855469 362.863281 454.640625 365.6875 456.652344 C 367.3125 457.808594 369.25 456.359375 368.417969 454.609375 C 367.535156 452.746094 362.207031 451.351562 358.605469 452.035156 M 433.214844 464.332031 C 433.070312 464.507812 433.074219 464.523438 433.230469 464.425781 C 433.332031 464.363281 433.539062 464.332031 433.691406 464.351562 C 433.84375 464.371094 433.964844 464.328125 433.964844 464.253906 C 433.964844 464.046875 433.402344 464.101562 433.214844 464.332031 M 435.191406 464.480469 C 435.191406 464.566406 435.730469 464.859375 435.886719 464.859375 C 435.925781 464.859375 435.894531 464.78125 435.816406 464.6875 C 435.65625 464.496094 435.191406 464.34375 435.191406 464.480469 M 431.734375 466.667969 C 431.503906 466.9375 431.359375 467.1875 431.4375 467.1875 C 431.472656 467.1875 431.617188 467.023438 431.761719 466.820312 C 432.046875 466.417969 432.03125 466.324219 431.734375 466.667969 M 377.210938 475.335938 C 382.378906 476.113281 383.921875 479.75 380.722656 483.617188 C 379.128906 485.546875 375.480469 487.621094 374.371094 487.230469 C 369.871094 485.644531 366.617188 481.238281 367.863281 478.417969 C 368.929688 476.011719 372.929688 474.691406 377.210938 475.335938 M 403.890625 480.796875 C 403.964844 481 404.007812 481.164062 403.980469 481.164062 C 403.957031 481.164062 403.847656 481 403.746094 480.796875 C 403.640625 480.59375 403.597656 480.429688 403.652344 480.429688 C 403.707031 480.429688 403.8125 480.59375 403.890625 480.796875 M 346.242188 480.917969 C 346.136719 481.121094 346.03125 481.289062 346.003906 481.289062 C 345.976562 481.289062 346.019531 481.121094 346.09375 480.917969 C 346.171875 480.71875 346.277344 480.550781 346.332031 480.550781 C 346.386719 480.550781 346.347656 480.71875 346.242188 480.917969 M 402.820312 486.4375 C 418.121094 516.742188 419.417969 559.773438 405.988281 591.632812 C 404.640625 594.820312 402.71875 598.695312 402.394531 598.867188 C 401.898438 599.132812 401.414062 600.824219 401.769531 601.042969 C 402.351562 601.398438 403.929688 604.742188 404.414062 606.640625 C 406.441406 614.5625 396.808594 613.652344 387.605469 605.058594 C 385.011719 602.636719 382.296875 599.136719 382.578125 598.574219 C 382.800781 598.132812 382.0625 551.070312 381.78125 547.886719 C 381.605469 545.847656 378.859375 545.578125 378.472656 547.566406 C 378.421875 547.832031 378.578125 558.558594 378.816406 571.402344 C 379.054688 584.25 379.238281 594.773438 379.226562 594.789062 C 378.617188 595.5625 373.304688 595.527344 371.21875 594.738281 L 370.691406 594.539062 L 370.757812 593.363281 C 370.894531 590.894531 371.601562 548.144531 371.511719 547.6875 C 371.128906 545.703125 368.382812 545.96875 368.203125 548.011719 C 368.019531 550.121094 367.242188 598.402344 367.386719 598.675781 C 367.695312 599.25 365.050781 602.6875 362.378906 605.179688 C 353.179688 613.777344 343.546875 614.683594 345.570312 606.765625 C 346.054688 604.863281 347.636719 601.523438 348.214844 601.167969 C 348.570312 600.949219 348.085938 599.257812 347.59375 598.992188 C 347.265625 598.816406 345.34375 594.945312 344 591.753906 C 330.429688 559.566406 331.882812 516.296875 347.5625 485.804688 L 348.675781 483.636719 L 349.359375 484.160156 C 350.199219 484.804688 350.738281 485.089844 351.121094 485.089844 C 351.378906 485.089844 351.433594 485.175781 351.566406 485.792969 C 353.117188 492.847656 360.09375 498.929688 366.011719 498.390625 L 366.902344 498.308594 L 366.902344 498.703125 C 366.902344 500.128906 368.710938 501.539062 371.253906 502.097656 C 372.097656 502.28125 374.414062 502.40625 374.324219 502.265625 C 374.300781 502.222656 374.949219 502.195312 375.769531 502.199219 C 379.90625 502.21875 383.085938 500.65625 383.085938 498.601562 L 383.085938 498.1875 L 383.972656 498.269531 C 389.890625 498.808594 396.867188 492.722656 398.417969 485.671875 C 398.554688 485.054688 398.609375 484.964844 398.863281 484.964844 C 399.238281 484.964844 399.902344 484.613281 400.679688 484.007812 L 401.292969 483.527344 L 401.699219 484.277344 C 401.921875 484.691406 402.425781 485.660156 402.820312 486.4375 M 376.226562 496.859375 C 378.875 497.246094 379.890625 497.503906 379.757812 497.75 C 379.566406 498.101562 378.480469 498.546875 377.445312 498.695312 C 376.9375 498.769531 376.191406 498.886719 375.78125 498.957031 C 374.460938 499.183594 371.839844 498.847656 370.796875 498.316406 C 369.648438 497.730469 370.117188 497.523438 373.851562 496.96875 C 374.335938 496.898438 374.800781 496.761719 374.878906 496.664062 C 374.976562 496.546875 375.074219 496.527344 375.167969 496.605469 C 375.246094 496.671875 375.722656 496.785156 376.226562 496.859375 M 419.910156 551.203125 C 427.585938 559.5625 432.523438 576.320312 431.371094 590.101562 C 430.992188 594.609375 431.203125 595.066406 433.761719 595.382812 C 441.132812 596.292969 443.03125 603.683594 436.3125 605.308594 C 435.253906 605.566406 432.042969 605.421875 431.023438 605.070312 C 430.660156 604.945312 428.535156 604.726562 424.832031 604.433594 C 421.730469 604.1875 416.421875 603.757812 413.035156 603.480469 L 406.878906 602.976562 L 406.242188 601.707031 L 405.609375 600.441406 L 406.910156 597.785156 C 413.472656 584.355469 417.65625 567.6875 418.46875 551.753906 C 418.574219 549.707031 418.546875 549.71875 419.910156 551.203125 M 331.519531 551.878906 C 332.328125 567.8125 336.515625 584.476562 343.078125 597.90625 L 344.375 600.558594 L 343.742188 601.832031 L 343.109375 603.101562 L 336.585938 603.632812 C 322.574219 604.777344 320.667969 604.953125 318.59375 605.300781 C 316.710938 605.617188 314.605469 605.667969 313.628906 605.425781 C 306.957031 603.761719 308.878906 596.410156 316.222656 595.507812 C 318.785156 595.191406 318.992188 594.730469 318.617188 590.222656 C 317.460938 576.445312 322.402344 559.683594 330.074219 551.328125 C 331.441406 549.839844 331.414062 549.828125 331.519531 551.878906 M 364.171875 609.492188 C 363.707031 610.226562 363.574219 610.515625 363.6875 610.515625 C 363.746094 610.515625 363.871094 610.363281 363.964844 610.179688 C 364.058594 609.992188 364.238281 609.6875 364.367188 609.496094 C 364.492188 609.308594 364.570312 609.121094 364.53125 609.085938 C 364.496094 609.050781 364.332031 609.234375 364.171875 609.492188 " fill-opacity="1" fill-rule="evenodd"/></g></svg>